<svg xmlns="http://www.w3.org/2000/svg"
    xmlns:xlink="http://www.w3.org/1999/xlink" width="327" height="327" viewBox="0 0 327 327">
    <!-- <defs>
        <style>.a{opacity:0.21;clip-path:url(#a);}</style>
        <clipPath id="a">
            <rect width="327" height="327" transform="translate(0 -0.2)"/>
        </clipPath>
    </defs> -->
    <g class="a" transform="translate(0 0.2)">
        <path d="M142.758,156.327l3.373-4.017a10.474,10.474,0,0,1,14.75-1.288l8.034,6.741a10.479,10.479,0,0,1,1.293,14.75l-3.373,4.017-30.3,36.063h0a52.365,52.365,0,0,1-73.75,6.44l-40.09-33.655h0a52.278,52.278,0,0,1-6.384-73.745L76.863,39.507v-.051a52.4,52.4,0,0,1,73.745-6.384l19.835,16.641,3.981,3.358A10.5,10.5,0,0,1,175.7,67.837l-6.7,7.983a10.472,10.472,0,0,1-14.745,1.293l-4.017-3.373L130.4,57.094h0A20.994,20.994,0,0,0,100.94,59.66L40.33,131.836h0A20.868,20.868,0,0,0,42.9,161.3l40.09,33.655h0a20.862,20.862,0,0,0,29.469-2.566Z" transform="translate(16.472 85.299)"/>
        <path d="M61.314,76.951l-3.373,4.017A10.467,10.467,0,0,1,43.2,82.257l-8.039-6.741a10.474,10.474,0,0,1-1.288-14.75l3.373-4.017,30.3-36.063h0a52.359,52.359,0,0,1,73.745-6.44L181.379,47.9h0a52.285,52.285,0,0,1,6.389,73.745l-60.559,72.125v.051a52.4,52.4,0,0,1-73.745,6.384L33.628,183.565l-3.981-3.358a10.505,10.505,0,0,1-1.278-14.765l6.7-7.983a10.473,10.473,0,0,1,14.745-1.293l4.022,3.373,19.835,16.646h0a21,21,0,0,0,29.469-2.566l60.605-72.176h0a20.856,20.856,0,0,0-2.566-29.464l-40.09-33.655h0a20.856,20.856,0,0,0-29.464,2.566Z" transform="translate(106.559 7.924)"/>
    </g>
</svg>