<svg xmlns="http://www.w3.org/2000/svg" width="39.333" height="39.333" viewBox="0 0 39.333 39.333"><defs><style>.a{fill:#222;}</style></defs><path class="a" d="M31.222,5H18.111A13.126,13.126,0,0,0,5,18.111V31.222A13.126,13.126,0,0,0,18.111,44.333H31.222A13.126,13.126,0,0,0,44.333,31.222V18.111A13.126,13.126,0,0,0,31.222,5Zm10.2,26.222a10.208,10.208,0,0,1-10.2,10.2H22.481A11.654,11.654,0,0,1,10.827,29.765c0-3.231.25-6.139-2.914-8.55v-3.1a10.208,10.208,0,0,1,10.2-10.2H31.222a10.208,10.208,0,0,1,10.2,10.2Zm-6.745-6.556a1.457,1.457,0,0,1-1.457,1.457H19.239L24.084,31.9a1.457,1.457,0,1,1-2.23,1.873L15,25.6c0-.005-.007-.012-.011-.017-.017-.02-.031-.042-.046-.063s-.048-.073-.073-.106-.032-.047-.046-.073-.018-.042-.028-.064a1.065,1.065,0,0,1-.047-.116c-.01-.028-.024-.055-.032-.084s-.009-.044-.015-.066a1.093,1.093,0,0,1-.023-.12c-.005-.029-.012-.058-.015-.088a.708.708,0,0,1,0-.079c0-.026-.007-.039-.007-.06s.005-.039.007-.06,0-.052,0-.079a.59.59,0,0,1,.015-.088,1.093,1.093,0,0,1,.023-.12c.005-.023.008-.044.015-.066s.022-.056.032-.084.029-.079.047-.116c.01-.022.017-.043.028-.064s.031-.048.046-.073a.786.786,0,0,1,.073-.106c.015-.021.029-.043.046-.063,0-.005.007-.012.011-.017l6.855-8.168a1.457,1.457,0,0,1,2.23,1.873L19.239,23.21H33.218a1.457,1.457,0,0,1,1.457,1.457Z" transform="translate(-5 -5)"/></svg>