<svg xmlns="http://www.w3.org/2000/svg" width="362.933" height="362.933" viewBox="0 0 362.933 362.933">
    <!-- <defs>
        <style>.a{opacity:0.12;}.b{fill:#e1b4e4;}</style>
    </defs> -->
    <g class="a" transform="translate(-6 -6)">
        <path class="b" d="M46.326,157.222H116.9A40.444,40.444,0,0,0,157.222,116.9V46.326A40.444,40.444,0,0,0,116.9,6H46.326A40.444,40.444,0,0,0,6,46.326V116.9A40.444,40.444,0,0,0,46.326,157.222ZM26.163,46.326A20.222,20.222,0,0,1,46.326,26.163H116.9a20.222,20.222,0,0,1,20.163,20.163V116.9A20.222,20.222,0,0,1,116.9,137.059H46.326A20.222,20.222,0,0,1,26.163,116.9Z" transform="translate(0 0)"/>
        <path class="b" d="M33.187,116.9h25.2A23.45,23.45,0,0,0,81.579,93.709v-25.2A23.45,23.45,0,0,0,58.391,45.318h-25.2C20.081,46.326,10,56.407,10,69.513v25.2C10,106.815,20.081,116.9,33.187,116.9ZM30.163,69.513a3.219,3.219,0,0,1,3.024-3.024h25.2a3.219,3.219,0,0,1,3.024,3.024v25.2a3.219,3.219,0,0,1-3.024,3.024h-25.2a3.219,3.219,0,0,1-3.024-3.024ZM332.607,46.326A40.444,40.444,0,0,0,292.281,6h-70.57a40.444,40.444,0,0,0-40.326,40.326V116.9a40.444,40.444,0,0,0,40.326,40.326h70.57A40.444,40.444,0,0,0,332.607,116.9ZM312.444,116.9a20.222,20.222,0,0,1-20.163,20.163h-70.57A20.222,20.222,0,0,1,201.548,116.9V46.326a20.222,20.222,0,0,1,20.163-20.163h70.57a20.222,20.222,0,0,1,20.163,20.163Z" transform="translate(36.326 0)"/>
        <path class="b" d="M306.428,46.326h-25.2a22.814,22.814,0,0,0-23.187,23.187v25.2A23.45,23.45,0,0,0,281.224,117.9h25.2a23.45,23.45,0,0,0,23.187-23.187v-25.2C328.607,56.407,318.526,46.326,306.428,46.326Zm2.016,48.391a3.219,3.219,0,0,1-3.024,3.024h-25.2a3.219,3.219,0,0,1-3.024-3.024v-25.2a3.219,3.219,0,0,1,3.024-3.024h25.2a3.219,3.219,0,0,1,3.024,3.024Zm50.407,82.668H16.081C10.033,177.385,6,181.418,6,187.467s4.033,10.081,10.081,10.081h342.77c6.049,0,10.081-4.033,10.081-10.081S364.9,177.385,358.852,177.385Zm-161.3-30.244V16.081C197.548,10.033,193.516,6,187.467,6s-10.081,4.033-10.081,10.081V147.141c0,6.049,4.033,10.081,10.081,10.081S197.548,153.19,197.548,147.141Zm0,211.711V227.793c0-6.049-4.033-10.081-10.081-10.081s-10.081,4.033-10.081,10.081V358.852c0,6.049,4.033,10.081,10.081,10.081S197.548,364.9,197.548,358.852ZM46.326,368.933H116.9a40.444,40.444,0,0,0,40.326-40.326v-70.57A40.444,40.444,0,0,0,116.9,217.711H46.326A40.444,40.444,0,0,0,6,258.037v70.57A40.444,40.444,0,0,0,46.326,368.933Zm-20.163-110.9a20.222,20.222,0,0,1,20.163-20.163H116.9a20.222,20.222,0,0,1,20.163,20.163v70.57A20.222,20.222,0,0,1,116.9,348.77H46.326a20.222,20.222,0,0,1-20.163-20.163Z" transform="translate(0 0)"/>
        <path class="b" d="M33.187,137.9h25.2a23.45,23.45,0,0,0,23.187-23.187v-25.2A23.45,23.45,0,0,0,58.391,66.318h-25.2C20.081,67.326,10,77.407,10,90.513v25.2C10,127.815,20.081,137.9,33.187,137.9ZM30.163,90.513a3.219,3.219,0,0,1,3.024-3.024h25.2a3.219,3.219,0,0,1,3.024,3.024v25.2a3.219,3.219,0,0,1-3.024,3.024h-25.2a3.219,3.219,0,0,1-3.024-3.024ZM332.607,37.082c0-6.049-4.033-10.081-10.081-10.081s-10.081,4.033-10.081,10.081V137.9a20.222,20.222,0,0,1-20.163,20.163H191.467c-6.049,0-10.082,4.033-10.082,10.081s4.033,10.081,10.082,10.081H292.281A40.444,40.444,0,0,0,332.607,137.9Z" transform="translate(36.326 190.711)"/>
        <path class="b" d="M37.082,128.815h90.733c6.049,0,10.081-4.033,10.081-10.081s-4.033-10.082-10.081-10.082H37.082c-6.049,0-10.081,4.033-10.081,10.082S31.033,128.815,37.082,128.815Zm0-80.652h90.733c6.049,0,10.081-4.033,10.081-10.081S133.864,28,127.815,28H37.082C31.033,28,27,32.033,27,38.081S31.033,48.163,37.082,48.163Zm0,40.326h90.733c6.049,0,10.081-4.033,10.081-10.081s-4.033-10.081-10.081-10.081H37.082C31.033,68.326,27,72.359,27,78.407S31.033,88.489,37.082,88.489Z" transform="translate(190.711 199.793)"/>
    </g>
</svg>