<svg xmlns="http://www.w3.org/2000/svg" width="75" height="112.5" viewBox="0 0 75 112.5"><g transform="translate(-12 -2)"><path d="M75.75,2H23.25A11.261,11.261,0,0,0,12,13.25v90A11.261,11.261,0,0,0,23.25,114.5h52.5A11.261,11.261,0,0,0,87,103.25v-90A11.261,11.261,0,0,0,75.75,2Zm7.5,101.25a7.5,7.5,0,0,1-7.5,7.5H23.25a7.5,7.5,0,0,1-7.5-7.5v-90a7.5,7.5,0,0,1,7.5-7.5h52.5a7.5,7.5,0,0,1,7.5,7.5Z"/><path d="M40.125,52h-7.5a5.625,5.625,0,0,0,0,11.25h7.5a5.625,5.625,0,0,0,0-11.25Zm0,7.5h-7.5a1.875,1.875,0,0,1,0-3.75h7.5a1.875,1.875,0,0,1,0,3.75Z" transform="translate(13.125 43.75)"/><rect width="4" height="4" transform="translate(36 9)"/><rect width="11" height="4" transform="translate(44 9)"/><path d="M22.875,30.25h7.5a1.875,1.875,0,0,0,1.875-1.875v-7.5A1.875,1.875,0,0,0,30.375,19h-7.5A1.875,1.875,0,0,0,21,20.875v7.5A1.875,1.875,0,0,0,22.875,30.25Zm1.875-7.5H28.5V26.5H24.75ZM60.375,19h-7.5A1.875,1.875,0,0,0,51,20.875v7.5a1.875,1.875,0,0,0,1.875,1.875h7.5a1.875,1.875,0,0,0,1.875-1.875v-7.5A1.875,1.875,0,0,0,60.375,19ZM58.5,26.5H54.75V22.75H58.5ZM32.25,50.875A1.875,1.875,0,0,0,30.375,49h-7.5A1.875,1.875,0,0,0,21,50.875v7.5a1.875,1.875,0,0,0,1.875,1.875h7.5a1.875,1.875,0,0,0,1.875-1.875ZM28.5,56.5H24.75V52.75H28.5Z" transform="translate(7.875 14.875)"/><path d="M24.75,34.5H28.5v3.75h3.75V34.5h5.625V30.75h-3.75V27h-3.75v3.75H24.75V27H21V38.25h3.75Z" transform="translate(7.875 21.875)"/><path d="M42.75,40.75H39V44.5h5.625A1.875,1.875,0,0,0,46.5,42.625V37H42.75Z" transform="translate(23.625 30.625)"/><path d="M38.375,41.375H40.25v-3.75H38.375V32h-3.75v5.625H29v3.75h5.625v3.75H29v3.75H44v-3.75H38.375Z" transform="translate(14.875 26.25)"/><rect width="4" height="15" transform="translate(66 49)"/><rect width="6" height="3" transform="translate(49 51)"/><rect width="4" height="4" transform="translate(59 64)"/><path d="M32.75,32.125H36.5V30.25h3.75V26.5H36.5V22.75h3.75V19H29v3.75h3.75Z" transform="translate(14.875 14.875)"/><rect width="4" height="9" transform="translate(59 51)"/></g></svg>