<svg xmlns="http://www.w3.org/2000/svg"
    xmlns:xlink="http://www.w3.org/1999/xlink" width="101" height="101" viewBox="0 0 101 101">
    <!-- <defs>
        <style>.a{fill:#d0d0d0;}.b{clip-path:url(#a);}</style>
        <clipPath id="a">
            <rect class="a" width="101" height="101" transform="translate(0 0.133)"/>
        </clipPath>
    </defs> -->
    <g class="b" transform="translate(0 -0.133)">
        <path class="a" d="M46.906,62.718l1.043-1.242a3.238,3.238,0,0,1,4.56-.4l2.484,2.084a3.24,3.24,0,0,1,.4,4.56l-1.043,1.242-9.369,11.15h0a16.19,16.19,0,0,1-22.8,1.991L9.784,71.7h0A16.164,16.164,0,0,1,7.811,48.9L26.533,26.6v-.016a16.2,16.2,0,0,1,22.8-1.974l6.133,5.145L56.7,30.793a3.245,3.245,0,0,1,.4,4.565l-2.07,2.468a3.238,3.238,0,0,1-4.559.4l-1.242-1.043-6.134-5.147h0a6.491,6.491,0,0,0-9.11.793L15.238,55.146h0a6.452,6.452,0,0,0,.793,9.11l12.4,10.406h0a6.45,6.45,0,0,0,9.111-.793Z" transform="translate(2.325 12.081)"/>
        <path class="a" d="M36.864,25.174l-1.043,1.242a3.236,3.236,0,0,1-4.559.4L28.776,24.73a3.238,3.238,0,0,1-.4-4.56l1.043-1.242L38.79,7.777h0a16.189,16.189,0,0,1,22.8-1.991l12.4,10.406h0a16.166,16.166,0,0,1,1.975,22.8l-18.724,22.3v.016a16.2,16.2,0,0,1-22.8,1.974L28.3,58.137,27.073,57.1a3.248,3.248,0,0,1-.4-4.565l2.07-2.468a3.238,3.238,0,0,1,4.559-.4l1.244,1.043,6.133,5.147h0a6.493,6.493,0,0,0,9.111-.793L68.533,32.746h0a6.448,6.448,0,0,0-.793-9.11l-12.4-10.406h0a6.448,6.448,0,0,0-9.11.793Z" transform="translate(15.04 1.16)"/>
    </g>
</svg>