<?xml version="1.0" standalone="no"?>
<!DOCTYPE svg PUBLIC "-//W3C//DTD SVG 20010904//EN"
 "http://www.w3.org/TR/2001/REC-SVG-20010904/DTD/svg10.dtd">
<svg version="1.0" xmlns="http://www.w3.org/2000/svg"
 width="1024.000000pt" height="1024.000000pt" viewBox="0 0 1024.000000 1024.000000"
 preserveAspectRatio="xMidYMid meet">

<g transform="translate(0.000000,1024.000000) scale(0.100000,-0.100000)"
fill="#000000" stroke="none">
<path d="M3296 8099 c-272 -36 -524 -221 -646 -474 -88 -183 -84 -136 -88
-942 l-3 -713 641 0 640 0 0 -2345 0 -2345 843 631 c463 348 847 636 853 640
7 6 320 -223 857 -626 466 -349 849 -635 852 -635 3 0 5 1364 5 3030 0 2727
-2 3039 -16 3108 -64 312 -305 563 -629 654 l-80 23 -1580 1 c-892 1 -1610 -2
-1649 -7z m544 -1059 l0 -640 -425 0 -426 0 3 488 c3 483 3 487 26 544 29 71
103 155 170 191 91 49 136 56 405 56 l247 1 0 -640z"/>
</g>
</svg>
