<svg xmlns="http://www.w3.org/2000/svg"
    xmlns:xlink="http://www.w3.org/1999/xlink" width="114.616" height="120.922" viewBox="0 0 114.616 120.922">
    <defs>
        <!-- <style>.a{clip-path:url(#a);}</style> -->
        <clipPath id="a">
            <rect width="83" height="83" transform="translate(-0.123 -0.344)"/>
        </clipPath>
    </defs>
    <g transform="translate(-553.384 -269.078)">
        <g class="a" transform="translate(585.123 307.344)">
            <path d="M38.613,54.619l.841-1a2.612,2.612,0,0,1,3.679-.321l2,1.681a2.614,2.614,0,0,1,.323,3.679l-.841,1L37.06,68.652h0a13.06,13.06,0,0,1-18.394,1.606l-10-8.394h0A13.039,13.039,0,0,1,7.075,43.471l15.1-17.989V25.47a13.07,13.07,0,0,1,18.393-1.592l4.947,4.15.993.837a2.618,2.618,0,0,1,.319,3.683l-1.67,1.991a2.612,2.612,0,0,1-3.678.323l-1-.841-4.948-4.152h0a5.236,5.236,0,0,0-7.349.64l-15.117,18h0a5.2,5.2,0,0,0,.64,7.349l10,8.394h0a5.2,5.2,0,0,0,7.35-.64Z" transform="translate(1.761 6.011)"/>
            <path d="M34.748,20.694l-.841,1a2.611,2.611,0,0,1-3.678.321l-2.005-1.681a2.612,2.612,0,0,1-.321-3.679l.841-1L36.3,6.66h0A13.059,13.059,0,0,1,54.7,5.054l10,8.394h0a13.041,13.041,0,0,1,1.593,18.393L51.183,49.83v.013A13.07,13.07,0,0,1,32.79,51.435l-4.947-4.15-.993-.837a2.62,2.62,0,0,1-.319-3.683l1.67-1.991a2.612,2.612,0,0,1,3.678-.323l1,.841,4.947,4.152h0a5.238,5.238,0,0,0,7.35-.64L60.3,26.8h0a5.2,5.2,0,0,0-.64-7.349l-10-8.394h0a5.2,5.2,0,0,0-7.349.64Z" transform="translate(7.781 0.84)"/>
        </g>
        <g transform="matrix(0.602, -0.799, 0.799, 0.602, 78.455, 736.574)">
            <g transform="translate(630.884 119.27)">
                <path d="M9.552,116.1h2.366L53.65,54.355q.819-1.638-.91-1.638H35.513L53.65,19.66c.546-1.092.121-1.638-1.213-1.638H29.326a2.2,2.2,0,0,0-1.759,1.092L10.7,64c-.121,1.092.243,1.638,1.152,1.638H28.538Z" transform="translate(-9.552 -18.022)"/>
            </g>
        </g>
    </g>
</svg>